<?xml version="1.0" encoding="UTF-8"?>
<svg id="Camada_2" data-name="Camada 2" xmlns="http://www.w3.org/2000/svg" viewBox="0 0 123.22 83.46">
  <g id="Camada_1-2" data-name="Camada 1">
    <g>
      <path d="M84.08,40.31c-.32-.08-.54-.29-.86-.42-.54-.21-2.75-.84-2.57.23.04.27,1.65,2.05,1.97,2.48,3.99,5.43,5.49,12.45,4.59,19.1-.38-.38-.2-1.09-.42-1.63-.32-.78-2.45-2.29-3.25-2.43-1.89-.31-1.84,2.79-2.04,3.86-.76,4.11-2.49,7.35-5.05,10.6-.87,1.1-3.55,4.35-4.78,4.66-.06.02-.18.03-.16-.05,1.02-.98.15-5.09-1.57-3.55-.81.72-1.64,1.82-2.5,2.61-4.53,4.18-10.67,8.08-17.11,7.64l1.7-.47c1.53-.52,4.34-2.37,5.49-3.52.1-.1.29-.3.23-.45-.15-.34-3.53-1.86-4.15-2.2-8.57-4.67-14.64-11.84-16.31-21.63-.13-.1-.72.43-.84.55-.74.74-1.67,2.23-2.31,3.14-.09.13-.95,1.8-1.2,1.52-2.12-8.54,2.01-16.87,7.58-23.11-1.6-.69-3.29.19-4.9.33,2.58-2.93,6.36-5.25,10.31-5.71,4.58-.53,7.42.9,11.56,2.02,2.39.65,2.67-.39,4.71-1.14,4.6-1.7,10.56-.81,14.92,1.24,2.83,1.33,5.6,3.45,6.98,6.3ZM72.94,69.13c.37.27,1.95-1.39,2.22-1.72,2.43-2.92,2.85-8.28,3.02-11.96.03-.69-.13-3.68.1-4,.56-.78,2.62.65,3.21,1.04.48.31,1.98,1.58,2.34,1.66.6.14,1.18-.23,1.24-.83.04-.4-.85-2.59-1.07-3.1-1.94-4.36-5.3-7.84-8.45-11.34-.17-.55.61-.71.95-.95,1.45-1.04.97-1.45-.27-2.27-2.71-1.8-9.83-3.43-12.2-.6-.96,1.14-.69,1.92-.67,3.21,0,.17.02.19-.17.17-4.85-2.6-11.84-6.93-16.89-2.49l1.23.39s-.06.14-.11.17c-.34.18-1.2.35-1.67.56-6.06,2.62-8.85,9.22-10.48,15.18.18.23.12.13.28.06.83-.39,2.56-2.01,3.34-1.89.5.08.66,1.08.72,1.51.25,1.75.23,3.33.63,5.14,1.94,8.83,9.38,17.16,17.74,20.6,1.15.47,1.42.43,2.57-.08,3.1-1.36,5.74-4.79,7.57-7.54,1.09-1.65,1.99-3.41,2.99-5.11,1.32,1.01,1.29,2.76,1.84,4.21Z"/>
      <g>
        <path d="M7.84,34.42c-1.52,1.85-2.26,2.81-3.71,4.82.97,1.43,1.45,2.15,2.42,3.58,1.29-1.77,1.95-2.63,3.29-4.28.28.46.41.69.69,1.15-1.32,1.63-1.97,2.47-3.24,4.22,1.24,1.83,1.86,2.75,3.09,4.58-.39.54-.58.81-.97,1.35-2.85-4.06-4.27-6.09-7.12-10.16,1.89-2.7,2.86-3.98,4.86-6.42.28.46.42.69.69,1.16Z"/>
        <path d="M22.4,35.03c-.49.44-.73.66-1.21,1.11-1.01-.98-1.53-1.46-2.57-2.4-1.63,1.58-2.43,2.41-4,4.15.32,1.68.49,2.52.85,4.18-.46.53-.69.79-1.14,1.34-1.24-6.01-1.76-9.09-2.58-15.38.5-.53.75-.79,1.25-1.3,3.93,3.06,5.81,4.73,9.4,8.3ZM17.65,32.86c-1.58-1.42-2.38-2.11-4.02-3.44-.13-.11-.32-.32-.55-.62-.01.01-.02.02-.03.03.12.38.2.69.23.95.38,2.63.6,3.94,1.05,6.52,1.3-1.43,1.97-2.12,3.31-3.44Z"/>
        <path d="M25.96,16.36c-1.14,6.27-1.55,9.41-2.07,15.6,2.22-1.85,3.35-2.7,5.64-4.25l.46,1.38c-2.96,2-4.41,3.12-7.23,5.61-.07-.16-.1-.24-.17-.4.38-6.16.72-9.28,1.71-15.54-2.35,1.69-3.51,2.61-5.78,4.58-.22-.52-.33-.78-.55-1.3,3.07-2.67,4.65-3.88,7.87-6.05.05.14.07.22.12.36Z"/>
        <path d="M32.04,28c-.21.13-.43.15-.64.04-.21-.11-.37-.3-.45-.58-.09-.28-.09-.57,0-.87.09-.3.24-.52.46-.66.22-.14.44-.15.66-.04.22.11.37.31.45.59.08.28.08.57-.01.87-.09.3-.25.51-.47.65Z"/>
        <path d="M46.94,21.06c-.55.16-.82.24-1.37.41-.69-1.43-1.05-2.14-1.77-3.55-1.85.63-2.77.98-4.59,1.77-.1,1.73-.14,2.59-.21,4.31-.54.25-.81.37-1.34.63.27-6.2.52-9.33,1.24-15.59.57-.23.86-.34,1.44-.56,2.85,4.88,4.17,7.4,6.6,12.56ZM43.14,16.6c-1.1-2.14-1.67-3.19-2.84-5.28-.1-.17-.21-.46-.36-.86-.01,0-.02,0-.03.01.02.41.02.75,0,1-.27,2.64-.38,3.96-.57,6.6,1.51-.64,2.27-.94,3.8-1.47ZM40.57,3.66c-.68,1.6-1.01,2.4-1.64,4.01-.42.17-.64.25-1.06.43.48-1.57.74-2.35,1.27-3.91.57-.22.86-.32,1.43-.52Z"/>
        <path d="M56.42,18.25c-1.05.92-2.21,1.48-3.51,1.7-1.52.26-2.8-.13-3.91-1.2-1.11-1.07-1.83-2.65-2.11-4.79-.29-2.18.03-4.14,1.02-5.82,1-1.68,2.44-2.72,4.26-3.01,1.32-.21,2.45-.09,3.38.32.04.74.06,1.11.09,1.86-1-.63-2.18-.86-3.51-.64-1.34.22-2.4.99-3.12,2.28-.72,1.28-.96,2.8-.75,4.54.22,1.79.76,3.1,1.6,3.97.84.86,1.86,1.18,3.09.97.84-.14,1.56-.46,2.15-.99-.1-1.6-.15-2.41-.24-4.01-.99.12-1.48.19-2.47.36-.05-.6-.08-.91-.13-1.51,1.54-.26,2.31-.36,3.85-.52.13,2.6.19,3.9.32,6.49Z"/>
        <path d="M67.09,13.44c-.2,4.02-1.65,5.85-4.36,5.79-2.6-.06-3.95-1.88-4.05-5.75-.09-3.51-.14-5.27-.23-8.78.57-.03.86-.04,1.43-.06.05,3.47.08,5.2.13,8.67.04,2.94,1,4.36,2.88,4.41,1.81.04,2.77-1.28,2.88-4.12.13-3.52.2-5.29.33-8.81.57.04.86.07,1.43.13-.17,3.41-.25,5.12-.42,8.53Z"/>
        <path d="M77.69,21.49c-.55-.17-.82-.26-1.37-.41-.22-1.71-.34-2.56-.6-4.27-1.86-.5-2.8-.7-4.68-1.03-.58,1.52-.86,2.29-1.41,3.82-.56-.09-.84-.13-1.39-.2,2-5.51,3.11-8.23,5.55-13.52.59.12.88.19,1.47.32,1.2,6.1,1.69,9.17,2.43,15.29ZM75.49,15.21c-.39-2.59-.61-3.88-1.08-6.47-.04-.21-.06-.54-.08-.99-.01,0-.02,0-.03,0-.1.39-.2.69-.29.91-.99,2.26-1.47,3.4-2.39,5.7,1.56.29,2.33.46,3.88.86Z"/>
        <path d="M91.2,27.77c-.52-.32-.78-.48-1.3-.79,0-1.74,0-2.61-.03-4.36-1.78-1.01-2.68-1.47-4.5-2.31-.78,1.33-1.16,2.01-1.9,3.36-.54-.24-.81-.35-1.35-.58,2.71-4.87,4.17-7.23,7.29-11.75.57.28.85.43,1.41.72.38,6.33.46,9.48.39,15.71ZM89.85,20.98c-.05-2.65-.09-3.99-.21-6.65-.01-.22,0-.55.05-.99-.01,0-.02,0-.03-.02-.15.36-.29.63-.41.81-1.28,1.95-1.91,2.93-3.12,4.94,1.5.71,2.25,1.09,3.73,1.91Z"/>
        <path d="M103.98,21.43c-4.3,2.17-6.34,3.46-10.19,6.36,2.3,1.56,3.43,2.41,5.64,4.26-.22.53-.32.79-.54,1.31-2.85-2.38-4.32-3.45-7.3-5.34.05-.17.08-.26.13-.43,3.74-3.05,5.73-4.42,9.92-6.77-2.31-1.82-3.49-2.67-5.88-4.21.18-.55.26-.83.44-1.39,3.23,2.09,4.82,3.26,7.92,5.86-.06.14-.09.21-.14.35Z"/>
        <path d="M109.78,36.94c-1.75,3.17-3.72,3.44-6.04,1.13-2.22-2.21-2.67-4.82-1.24-8.13,1.29-2.99,1.94-4.48,3.24-7.47.5.44.75.67,1.25,1.13-1.31,2.92-1.97,4.38-3.29,7.3-1.12,2.48-.85,4.44.76,6.05,1.55,1.55,2.9,1.26,4.1-1.01,1.49-2.81,2.24-4.22,3.74-7.03.48.52.72.78,1.19,1.31-1.48,2.69-2.22,4.03-3.71,6.72Z"/>
        <path d="M113.82,49.83c-1.7-2.43-2.58-3.58-4.37-5.76,2.61-4.38,3.91-6.57,6.52-10.94.46.56.69.85,1.15,1.42-2.38,3.85-3.57,5.78-5.95,9.63,1.4,1.76,2.08,2.68,3.41,4.58-.3.43-.45.65-.75,1.08Z"/>
      </g>
    </g>
  </g>
</svg>