<?xml version="1.0" encoding="UTF-8"?><svg id="Camada_2" xmlns="http://www.w3.org/2000/svg" viewBox="0 0 465.88 427.96"><defs><style>.cls-1,.cls-2,.cls-3{fill:none;}.cls-4{letter-spacing:.01em;}.cls-5{letter-spacing:0em;}.cls-6{letter-spacing:-.03em;}.cls-7{letter-spacing:0em;}.cls-8{fill:#fff;}.cls-9,.cls-10{fill:#3a3a3a;}.cls-11{font-size:49.99px;}.cls-11,.cls-12,.cls-13,.cls-14{fill:#262626;}.cls-11,.cls-12,.cls-13,.cls-14,.cls-2{stroke-miterlimit:10;}.cls-11,.cls-12,.cls-13,.cls-14,.cls-2,.cls-3{stroke:#262626;}.cls-11,.cls-13{font-family:Calimate-Medium, Calimate;font-weight:500;}.cls-15{letter-spacing:-.02em;}.cls-12,.cls-10{fill-rule:evenodd;}.cls-16{letter-spacing:-.04em;}.cls-13{font-size:52.55px;}.cls-2,.cls-3{stroke-linecap:round;stroke-width:2px;}.cls-3{stroke-linejoin:round;}.cls-17{letter-spacing:-.01em;}.cls-18{letter-spacing:-.03em;}.cls-19{letter-spacing:-.03em;}</style></defs><g id="Camada_1-2"><g><g><text class="cls-11" transform="translate(114.31 42.69)"><tspan class="cls-6" x="0" y="0">A</tspan><tspan class="cls-19" x="31.94" y="0">GRÍ</tspan><tspan class="cls-16" x="106.93" y="0">C</tspan><tspan class="cls-18" x="137.37" y="0">O</tspan><tspan class="cls-15" x="169.07" y="0">L</tspan><tspan class="cls-19" x="196.56" y="0">A</tspan></text><g><text class="cls-13" transform="translate(90.24 94.78)"><tspan class="cls-17" x="0" y="0">P</tspan><tspan class="cls-5" x="33.79" y="0">i</tspan><tspan class="cls-4" x="47.87" y="0">n</tspan><tspan class="cls-5" x="80.35" y="0">do</tspan><tspan class="cls-7" x="143.25" y="0">r</tspan><tspan class="cls-5" x="165.69" y="0">ama</tspan></text><line class="cls-2" x1="66.98" y1="78.03" x2="87.28" y2="78.03"/><line class="cls-3" x1="369.6" y1="80.83" x2="389.89" y2="80.83"/></g></g><g><path class="cls-1" d="M274.65,319.98c.57,.83,1.2,1.39,1.85,1.75,1.63,.91,3.38,.6,4.59,.16,.93-.34,1.55-.75,1.55-.75"/><path class="cls-9" d="M227.34,411.62v11.79c67.78-.16,135.1-32.28,175.82-93.79,2.62-4.03,5.83-9.04,8.14-13.26,.68-1.25,1.93-3.24,2.54-4.53,1.32-2.69,3.44-6.57,4.71-9.25,7.68-15.46,11.23-32.85,13.54-49.72,.21-2.19,.69-6.72,.91-8.93,.15-1.83,.21-4.73,.33-6.39,.49-8.46,.08-16.99-.54-25.41-1.06,10.45-2.68,20.78-4.97,31.01-.51,2.07-1.66,6.3-2.2,8.44-3.56,12.78-8.26,25.14-14.04,36.87-1.38,2.96-2.72,5.93-3.96,8.95-.51,1.26-1.5,3.17-2.14,4.4-.46,.87-2.38,4.68-2.79,5.45-.36,.61-1.45,2.53-1.83,3.18-.92,1.54-2.75,4.91-3.72,6.33-.83,1.26-3.11,4.86-3.96,6.18-36.69,56.09-100.78,88.32-165.85,88.67Z"/><path class="cls-10" d="M198.32,229.88l-7.03,.44c-40.28,2.81-79.31,10.17-116.58,21.56,55.45,5.23,108.13,23.73,154.04,53.31,47.93-29.91,96.96-47.81,153.39-53.25-37.26-11.41-76.29-18.78-116.57-21.61l-7.03-.44c-6.37-.36-12.78-.61-19.2-.74,0,0-32.53,.25-41.03,.73Z"/><path class="cls-12" d="M298.61,372.21c16.8-8.36,34.67-14.9,53.36-19.35-13.45,11.82-28.53,21.82-44.88,29.6-2.79-3.45-5.59-6.88-8.48-10.24"/><path class="cls-12" d="M289.09,361.57c24.78-12.79,51.84-21.78,80.41-26.2,4.36-4.95,8.48-10.12,12.33-15.49-36.86,3.75-71.59,14.67-102.77,31.37,3.41,3.36,6.75,6.8,10.03,10.32"/><path class="cls-12" d="M245.94,322.46c46.62-27.98,100.96-44.42,159.06-45.37,1.76-4.54,3.36-9.15,4.78-13.84-64.58,.1-124.86,18.55-175.9,50.41,4.08,2.84,8.1,5.77,12.06,8.8"/><path class="cls-12" d="M268.53,341.27c36.79-20.44,78.46-33.18,122.83-36.03,2.71-4.62,5.25-9.35,7.58-14.2-51.4,1.88-99.55,16.43-141.45,40.62,3.75,3.12,7.43,6.32,11.04,9.61"/><path class="cls-10" d="M85.84,334.38c52.13,8.07,99.2,31.43,136.5,65.35,6.57,.29,13.15,.25,19.72-.12-43.97-44.38-102.84-73.97-168.49-80.65,3.83,5.35,7.93,10.49,12.27,15.41Z"/><path class="cls-10" d="M197.86,397.09c-27.53-21.31-59.63-36.98-94.59-45.31,26.22,23.04,58.71,39.11,94.59,45.31Z"/><path class="cls-10" d="M56.55,290.29c2.32,4.82,4.84,9.53,7.55,14.12,77.14,4.95,146.09,39.96,195.27,93.46,5.32-.78,10.57-1.78,15.75-2.98-53.53-61.56-131.37-101.41-218.56-104.6Z"/><path class="cls-10" d="M67.02,263.34s-.02-.06-.04-.09l-16.48,13.14c96.12,1.57,181.88,45.75,239.21,114.48,4.65-1.47,9.22-3.12,13.71-4.93-56.59-69.93-141.01-116.41-236.41-122.6Z"/><polyline class="cls-1" points="70.63 262.38 65.62 266.38 49.06 279.6"/><g><path class="cls-8" d="M227.01,220.11l-1.04,3.27-.26,3.21,.31,4.25,.81,6.43-2.93,8.03-.91,3.36-1.06,2.13-.26,2.85-.13,2.34,.95,1.94-.09,4.94,1.09,5.39,.79,2.59-11.15,.67v-4.82l1.19-5.8-2.84-46.33-6.02-4.23-4.74-2.31-3.07,7.38,2.31,30.78,1.62,3.43,2.77,6.2,2.6,7.62-7.33,1.35-2.03-5.26-1.04-7.28,.29-7.97-8.02-39.2-1.62-2.28-1.67-3.48-2.57-10.2s-4.67-19.75-1.77-28.82c2.89-9.07,6.06-14.19,6.06-14.19,0,0,9.07-11.03,12.17-11.18s9.58-3.67,15.27-2.03c0,0,4.7-5.85,11.09-5.54l3.48,.38s2.36-8.84,6.6-10.19c0,0,4.06-2.7,9.18-.72l3.39-1.5,3.94,1.27,4.75,.94,2.05,2.16,.54,2.44,2.42,3.22,2.17,.95,2.12-.7s3.4-1.42,4.05-.95,2.01,1.23,2.01,1.23l3.29,2.71,.89,1.37-1.03,1.61-2.62,2.55-3.3,1.62-3.6,.5-1.62-.05-.2,.49,2.17,3.45,2.3,5.31,.09,3.01-1.22,6.01,.18,1.09,.79,1.63,3.78,12.83,2.11,8.83s.25,3.13-.75,5.49-1.64,4.65-1.64,4.65l-2.04,5.91-.16,3.3-.6,3.18-.94,1.01,.14,.97-1.23,8.98-2.13,6.15-2.16,6.12-2.48,7.98,.65,8.69,.58,3.2-.8,4.46-.48,3.52,.04,3.67,.8,4.77,2.07,3.82,2.35,7-9.83,.19-2.04-4.53,1.25-10.37,.47-9.96-1.17-20.77-.74-2.64-3.08,2.35-3.55,3.84-11.41-12.4-8.58,2.63Z"/><g><path class="cls-14" d="M276.93,129.9c-.46-1.38-4.61-4.61-6.69-5.08-2.08-.46-5.65,1.27-5.65,1.27,0,0-1.38-.69-3.23-1.85-.59-.37-.99-.78-1.28-1.22,.22-.41,.24-.74,1.63-3.74,1.38-3,1.15-4.15,0-4.85s-5.66,2.73-5.66,2.73h0c-.54-.33-1.1-.53-1.61-.53-1.62,0-5.08-.92-6.23-1.15s-2.08,1.15-3.23,.92c-.17-.03-.38-.03-.63,.01-2.65-.81-5.76-.35-7.17-.12-1.35-.25-2.62-.18-3.16,.69-.3,.48-.3,1.01-.14,1.52-3.21,2.33-4.93,8.86-4.93,8.86l.37,.06c.61-4.09,4.82-8.31,4.82-8.31h0c.65,1.22,1.96,2.25,1.96,2.25l.25,.46h0c-.21,.34-.41,.7-.6,1.05h0s-2.57,4.09-2.57,4.09c0,0,0,0,0,0,0,0-.09,.06-.11,.11-.41,.41-.85,.75-1.13,.75-.69,0-5.31-1.15-8.54-.46-2.11,.45-6.58,2.87-8.98,5.14,0,0-9.02-.29-14.79,2.01-5.77,2.31-8.08,6.23-8.08,6.23,0,0-6.46,6.46-9.46,14.54-3,8.08-2.54,17.3-.92,27.69,1.62,10.38,6.12,22.26,6.12,22.26,0,0-3.12-12.11-4.97-17.88-1.85-5.77-2.08-20.54-1.15-26.53,.92-6,2.54-7.61,5.54-12.69,3-5.08,7.84-10.61,12.92-12.92,5.08-2.31,14.17-2.08,14.17-2.08h0c-.86,.97-1.25,1.88-.79,2.54,1.62,2.31,3.92,.92,7.15,1.38,2.02,.29,2.96,1.3,4.05,1.85h0c-.13-.23-6.36,5.77-7.05,9.23,0,0,4.95-7.9,8.01-8.91,.42,.07,.88,.05,1.45-.09,2.33-.58,5.95-1.65,7.6-3.07-.04,.61-.19,2.94,.01,4.92,.23,2.31,1.47,4.56,1.5,6.11,.02,.9-.81,2.65-1.5,3.11-.69,.46-2.08,1.62-2.08,3.92s-.23,3.46,.92,4.85c1.15,1.38,2.54,1.62,2.77,1.38s.69-1.62,2.08-1.62c1.1,0,2.49,.29,3.82,.41h.02s0,0,0,0c.34,.03,.67,.05,.99,.05,1.62,0,3.46-.46,4.38,.23,.65,.49,1.19,.29,1.45,.13,.02,0,.03,0,.05-.01,.36-.13,1.24-.79,1.73-1.04,.79-.4,.73-1.81,.56-3.08,.4-.29,2-1.46,3.6-2.46,1.85-1.15,1.38-5.54,1.38-5.54,0,0-.46,1.15-.69,2.54s-4.38,4.85-4.38,4.85c-.23-1.38,.92-4.85,.92-4.85,0,0-1.15,1.85-1.38,4.15-.23,2.31,.58,2.42,.12,3.11s-2.31,1.85-2.31,1.85l.31,.18h0c-.47-.28-1.48-.82-2.5-.99-.1-.02-.2-.03-.29-.03h0s-.86-1.81-1.32-2.28,.23-1.38,1.15-2.31,.23-2.77-.92-3.46-3.46,.46-4.61,.46-2.08-.46-3.23-.46-2.67,1.1-3,2.08c-.58,1.73,1.15,3.23,1.15,3.23,0,0,.23,0,.69,1.15,.46,1.15-1.84,2.24-1.85,2.24-.42-.4-.82-.98-.92-1.78-.23-1.85-.46-4.38,.69-5.31,1.15-.92,2.77-3.23,2.77-4.15s-1.15-4.85-1.38-6c-.21-1.04-.6-4.87-.68-5.63,.3-.26,.53-.54,.68-.83,0,0-6.23,3.23-8.54,3.46-2.31,.23-4.85-2.31-6-2.31s-6.23,.69-6.92-1.15c-.69-1.85,5.08-5.54,7.84-6.46,2.77-.92,9.46-.23,10.61-.23,2.42-.35,3.81-5.88,7.38-9.23,1.62-1.85,5.08-2.08,5.77-1.85s1.62-.69,2.77-1.38,2.08,.46,3.69,.92c1.62,.46,3.46,.23,5.31,1.38,.22,.14,.42,.29,.59,.46l.52,.62s0,.01,.01,.02c.04,.09,.3,.64,.63,1.29,.28,.78,.45,1.58,.78,2.23,.35,.71,1.44,1.72,2.5,2.54-.59,.63-1.61,2.32-1.81,3.69,0,0,1.68-2.58,2.57-3.14,.72,.49,1.33,.83,1.58,.83,.69,0,5.08-2.08,6.92-1.15s4.85,3.69,4.85,4.61-5.08,4.61-7.15,5.54c-.87,.39-1.99,.49-2.98,.5-.77,0-1.52-.24-2.14-.69l-3.65-2.58c.46,1.62,3.46,3.23,3.46,3.23,.23,.23,2.08,.69,4.38,.69s4.15-2.54,4.85-2.77,4.61-3,4.15-4.38Zm-35.07,22.84c.92-.69,1.85,.23,2.31-.46s.23-1.15,.23-1.15c0,0,.92,.46,.69,1.38-.23,.92-1.62,2.31-3.23,2.08,0,0-.92-1.15,0-1.85Zm-6.23,2.08c-1.62-.92-1.15-3-1.15-3,0,.92,.69,1.38,1.62,1.38s1.15,2.54-.46,1.62Zm5.46-37.18c-.57-.28-1.6-.72-2.7-1.05,2.06-.62,5.2,0,5.2,0h0c-.73,.22-1.61,.59-2.5,1.05Z"/><path class="cls-14" d="M225.25,133.36c.69,.92,5.08-1.15,7.84,.46v-1.38s-2.31-2.77-5.08-3c-2.77-.23-6.92-.46-7.61,.69-.69,1.15-.46,2.54,1.62,1.85,2.08-.69,3.92-1.85,5.31-.46,1.38,1.38-2.77,.92-2.08,1.85Z"/><path class="cls-14" d="M234.48,129.67l-.23,.92c-.46,.23-.46,.92-.46,.92,0,1.85,1.15,1.85,1.15,1.85l1.85,2.54s-.23-1.15-1.15-2.31-1.15-3.92-1.15-3.92Z"/><path class="cls-14" d="M255.01,131.98s2.54,1.38,3,.23-.92-2.54-1.15-3,.23-1.38,.23-1.38c0,0-1.38,1.62-2.08,2.77-.69,1.15-2.54,3.23-2.54,3.23,1.15,0,2.54-1.85,2.54-1.85Z"/><path class="cls-14" d="M241.17,162.2c-2.54-.46-4.38-1.85-4.38-1.85,0,0,.23,1.62,1.85,2.08,1.62,.46,3.46,.69,5.08,.46s3.23-2.54,3.23-2.54c0,0-3.23,2.31-5.77,1.85Z"/><path class="cls-14" d="M237.94,136.36c.23-.69-.46-3-1.15-3.69s-1.15-2.54-1.15-2.54c0,0,.23,2.31,1.15,3.23s1.15,3,1.15,3Z"/><path class="cls-14" d="M252.94,130.82c1.15-.92,2.54-3.92,2.54-3.92,0,0-2.08,3.23-3.23,3.92-1.15,.69-2.31,3-2.31,3,0,0,1.85-2.08,3-3Z"/><path class="cls-14" d="M246.01,128.73s0,.01,0,.02c0,.02,0,.01,0-.02Z"/><path class="cls-14" d="M245.78,119.75c-.46-1.15-1.15-1.15-1.15-1.15,0,0,.92,1.85,.46,3.46,0,0,1.15-1.15,.69-2.31Z"/><path class="cls-14" d="M258.47,140.98c.69-2.31,.23-7.84,.23-7.84,0,0,0,6-1.15,8.08-1.15,2.08-2.08,3.46-2.08,3.46,0,0,2.31-1.38,3-3.69Z"/><path class="cls-14" d="M270.7,129.21c1.15-.23,2.77,0,1.85-1.62s-3.92-1.15-6-.69-4.15,3.92-4.38,4.15c0,0,.23,1.15,1.62,1.38,1.38,.23,3.23,.92,3.69,0s-2.08-.69-1.62-1.38,4.85,.46,5.08-.23-1.85-.46-2.08-1.15c-.23-.69,.69-.23,1.85-.46Z"/><path class="cls-14" d="M252.71,174.66s.69-10.38,2.08-14.31c1.38-3.92,2.31-8.08,2.31-8.08,0,0-1.85,3-3,8.08-1.15,5.08-1.85,11.08-1.38,14.31Z"/><path class="cls-14" d="M256.91,166.04c-.18,.35-.28,.55-.28,.55,.09-.17,.19-.36,.28-.55Z"/><path class="cls-14" d="M261.47,153.9c.69-4.85,.69-6.46,.69-6.46-.22,.89-2.6,13.19-5.26,18.6,.95-1.86,3.98-8.06,4.56-12.14Z"/><path class="cls-14" d="M266.78,156.67c-.23,2.31-.69,11.08-3.23,13.38-2.54,2.31-4.61,9.23-4.61,9.23,0,0,3.46-7.38,4.61-8.31,1.15-.92,3.92-8.31,3.92-13.15s2.25-10.82,1.62-12.46c-2.65-6.81-5.54-9-5.54-9,0,0,4.38,7.15,4.61,9.69,.23,2.54-1.15,8.31-1.38,10.61Z"/><path class="cls-14" d="M247.86,181.59c-1.62-1.38-1.85-6-1.85-8.77s-2.54-7.61-4.61-8.54c-.42-.19,3.46,3.92,3.69,9.23,.23,5.31,.23,9,3,9s4.38-3.69,4.38-3.69c0,0-3,4.15-4.61,2.77Z"/><path class="cls-14" d="M253.4,183.89c2.54-1.15,5.31-7.84,6-10.61,.4-1.6,1.57-4.5,2.44-6.44-1.21,1.9-3.11,4.81-3.59,7.83-.69,4.38-5.27,9.42-4.85,9.23Z"/><path class="cls-14" d="M267.7,155.05s1.15,5.54,2.08,8.54c.92,3,3.92,13.38,4.38,16.84,.46,3.46-2.77,8.31-3.46,10.15-.69,1.85-.92,5.54-1.38,8.08-.46,2.54-1.62,4.85-1.62,4.85t.77-1.08c-.23,1.21-1.51,8.04-1.93,10.77-.46,3-6.23,17.77-6.69,20.07-.46,2.31,.69,8.08,1.15,9.92,.14,.54,.07,1.71-.09,3.13,0,.03-.38,1.94-1.98,1.48-1.62-.46-2.31-1.38-2.31-1.38,0,0,1.03,3.23,3.86,3-.44,2.79-.97,5.63-1.09,6.69-.23,2.08,1.85,5.31,2.77,6.69,.92,1.38,2.31,6,2.31,6,0,0,.46,.92-1.15,1.38-1.62,.46-6.46-.23-7.38-.69-.92-.46-1.38-2.08-1.85-3.46-.35-1.04,.42-4.22,.58-5.65,.28-1.13,.69-4.46,1.27-6.58,.69-2.54-.23-15.69-.46-18.92-.23-3.23,5.08-11.54,6.69-18,1.62-6.46,.05-9.65,.05-9.65,.63-.71,1.28-1.62,1.79-3.27,1.15-3.69-1.15-5.08-1.15-5.08,0,0,2.54-2.08,4.61-7.15,2.08-5.08-.46-11.31-.46-11.31,0,0,1.15,7.84-.23,11.08-1.38,3.23-4.61,7.61-4.61,7.61,1.85,1.15,1.38,4.85-.69,7.61-2.08,2.77-3.23,8.08-3.92,10.61-.69,2.54-4.38,6-7.61,4.85-3.23-1.15-3-6.92-3-6.92-.85,7.03,2.03,9.92,6.66,7.42l-1.12,.88s-.5,.75-1.23,1.61h0c-.99,1.17-2.42,2.55-3.62,2.55-2.08,0-2.31-5.77-3.23-7.15-.86-1.29-3.13-4.39-3.43-4.8,.16,.25,.68,1.4,1.27,2.92-1.22-1.38-3.67-3.53-7.77-3.89-5.31-.46-7.38,.69-8.08-1.62-.04-.13,.13,1.97,.18,4.19,0,0-.87,4.58-1.56,7.58-.69,3,.46,6,.69,11.08,.23,5.08-1.15,6-1.62,7.15,0,0-1.38,3-3.69,1.85-2.31-1.15-2.54-1.85-2.54-1.85,0,0,.72,4.9,4.74,4.41,0,0,0,0,0,0-.92,3.08-1.83,6.88-1.28,8.51,.92,2.77,.46,7.15,.46,8.77s1.62,4.85,1.62,4.85c-4.11,1.37-8.71-.25-10.02-.77,.16-1.76,.49-4.68,1.02-6.61,.69-2.54,2.54-6.69,2.77-8.31s-.46-7.15-.46-8.54-1.38-16.61-2.08-19.84c-.69-3.23-1.85-11.08-1.85-11.08,0,0,.65-1.89,.74-2.77,.03-.11,.04-.24,.03-.39,.1-2.07-.84-3.9-1.46-5.61-.23-.64-.56-1.45-.91-2.35-.66-2.23-1.55-5.21-2.31-7.69,0-.12-.01-.24-.01-.35,0-2.77-1.85-6.46-1.85-6.46,0,0,.18,.85,.42,2.08h0s.27,7.84-.19,11.53c-.46,3.69,2.54,7.61,2.54,7.61,0,0-1.62-.69-4.61-1.62-2.73-.84-15.45-11.77-17.14-12.89l-.1-.13c-2.71-5.64-4.22-17.21-4.22-17.21-.69,5.77,3,15.92,3,15.92,0,0,.07,.13,.19,.33-1.24,10.74,3.5,21.82,3.73,22.28,.23,.46-.23,1.85-.92,4.61-.69,2.77,1.38,5.54,1.38,5.54,0,0-.46,1.62-1.38,2.77s-2.54,3.23-2.77,5.54c-.23,2.31,1.38,1.15,1.38,2.31s-1.38,2.77-1.38,2.77c0,0,2.08-.46,3.69-.46s3.46-1.15,3.46-1.15l1.89,8.8,.33,4.21h0c.03,2.37,.17,5.79,.32,6.83,.23,1.62,1.85,3.69,1.85,4.85s-.69,2.54,0,3.23,2.77,.92,4.15,1.15,2.08-1.15,2.08-1.15c0,0,1.38,1.15,2.31,1.15s2.08-1.38,2.08-1.38c0,0-1.38-2.08-1.85-2.77-.17-.26-.57-1.26-1.01-2.42h0s-2.26-6.69-2.26-6.69c-1.16-3.87-3.32-11.11-3.66-12.11-.46-1.38-.23-4.38,0-6.69,.23-2.31-.46-9.69-.23-10.84s1.38-4.15,1.15-6,.09-8.45,.09-8.45l3.92,2.45h0c.63,1.21,1.72,3.01,2.92,3.46,1.85,.69,2.54,.69,2.54,.69,0,0-.92,4.38-.92,9.92s.69,6.69,.46,11.54c-.23,4.85-.92,12.23-1.62,13.61-.69,1.38-.46,3,0,5.54,.46,2.54,.23,4.15,.23,4.38s1.15,1.85,2.54,2.08c1.38,.23,1.62-.46,1.62-.46-.49,1.31-.29,3.88-.13,5.28-.05,.09-.12,.2-.19,.35-.32,.66-.76,1.87-.61,3.37,.23,2.31,2.77,2.31,3.23,2.08,.46-.23,3-.69,3-.69l3.46,1.15s3-.92,3-3-1.85-6-2.08-7.15c-.23-1.15,0-6-.69-8.31-.69-2.31,0-6,.69-7.84,.69-1.85,2.54-6,3.46-8.31,.92-2.31,.23-8.54-.23-11.31-.46-2.77,.44-7.39,.44-7.39v-.2c.28,1.88,8.61,0,9.94,.89,1.38,.92,1.85,7.15,4.61,9,2.76,1.84,6.81,1.56,8.93-4.14-.06,.09,.87-1.1,1.42-1.95,.17,1.34,.68,5.99,.49,10.47-.23,5.31,.69,6.46,2.31,11.31,1.26,3.78,.56,9.93,.18,12.47,0,.02-.65,3.69-.88,4.84-.23,1.15,.58,4.73,.58,4.73-1.15,.69-.58,5.42-.58,5.42,0,0,3.69,1.62,5.31,1.15,1.62-.46,2.08-1.85,2.31-2.08s3.92,2.08,3.92,2.08c0,0,3-.92,2.31-3-.69-2.08-2.77-4.38-2.77-6s-3-6.92-3.92-8.77c-.92-1.85,.69-9,.92-12.92,.23-3.92-.92-7.15-.92-9.92s2.77-12.46,5.77-19.61c2.76-6.59,2.3-12.49,2.21-13.38,.1-.14,.21-.29,.33-.47,1.15-1.62,1.38-6.92,1.85-8.08,.46-1.15,3.23-7.61,4.15-12,.92-4.38-2.77-12.46-3.46-14.54-.69-2.08-3.69-12.23-3.69-12.23Zm-63.69,100.53s2.18,7.15,2.08,7.45c-.23,.69-5.31,.69-6.23,.23-.92-.46-2.77-3-2.77-5.08,0-1.33-.28-7.87-.48-9.05,.42,.41,1.23,.95,2.79,1.43,2.01,.62,3.7,3.3,4.61,5.01Zm56.47-6.16l.43-3.09c-.11,.95-.26,2.01-.43,3.09Z"/><path class="cls-14" d="M243.25,176.05c-.46-3.23-4.38-12-4.61-11.77,0,0,2.54,7.61,3.23,10.15,.69,2.54,.92,6.69,3.23,11.08,2.31,4.38,3.46,11.31,3.46,11.31,0,0-1.15-9.23-2.54-11.08-1.38-1.85-2.31-6.46-2.77-9.69Z"/><path class="cls-14" d="M240.4,192.7c1.9,3.28,2.16,3.66,2.16,3.66-.5-1.22-1.27-2.43-2.16-3.66Z"/><path class="cls-14" d="M251.55,199.81c-.23-3,.92-13.84,.92-13.84-2.08,3.69-.89,14.3-.92,13.84Z"/><path class="cls-14" d="M251.78,215.96c-2.31,.46-4.38-3.92-5.77-11.08,0,0,0,4.15,1.38,7.61,1.38,3.46,2.54,6,5.08,4.38,2.54-1.62,2.54-8.08,3.46-13.38,.92-5.31,3.46-6.23,3.46-10.61s4.85-7.84,5.31-10.38c.46-2.54,0-6.23,0-6.23,0,0,.23,4.38-1.85,7.61-2.08,3.23-3.46,6.46-3.92,9-.46,2.54-3,6.69-3.46,9.92-.46,3.23-1.38,12.69-3.69,13.15Z"/><path class="cls-14" d="M240.97,215.78s-.03-.05-.03-.05c0,0,.02,.03,.03,.05Z"/><path class="cls-14" d="M230.33,189.2c.92,5.54,7.15,9.69,7.15,9.69-2.31-2.08-7.36-10.92-7.15-9.69Z"/><path class="cls-14" d="M221.79,197.74c2.54,1.15,4.85,2.08,4.85,2.08,0,0-6.54-3.55-7.85-6.95,.37,1.5,1.24,4.07,3,4.87Z"/><path class="cls-14" d="M208.41,174.89c1.38-4.61,2.54-13.15,2.54-13.15,0,0-1.62,7.38-3.92,12-.18,.35-.33,.72-.45,1.11-1.52,4.63,.45,11.12,.45,11.12,0,0,0-6.46,1.38-11.08Z"/><path class="cls-14" d="M186.72,161.74c0,5.54-1.62,10.15-1.62,10.61,0,0,3-5.31,2.77-9.46-.23-4.15,.92-13.84,.92-13.84,0,0-2.08,7.15-2.08,12.69Z"/><path class="cls-14" d="M260.09,146.98s2.54-3.46,2.54-5.77c0-1.66-1.31-3.79-2.05-4.86,.56,1.41,1.07,4.56,.89,5.09-.23,.69-1.38,5.54-1.38,5.54Z"/><path class="cls-14" d="M248.72,119.86h0l.62-1.01c.31-.37,.54-.7,.6-.94,.1-.42-.03-.18-.33,.38h0s-1.23,1.57-1.23,1.57h0c-.79,.79-1.67,1.61-2.14,2.2-.7,.87-.49,4.57-.35,6.11-.27-3.26,.67-5.31,1.96-7.04,.31-.42,.6-.85,.86-1.27Z"/><path class="cls-14" d="M230.09,149.05c-.69,2.54-.92,5.77-.69,7.61,.02,.18,.07,.39,.14,.62h0s0,.03,0,.03c.06,.19,.13,.4,.21,.62l1.33,3.98h0c.04,.17,.08,.33,.12,.49h0s0,.01,0,.01c.5,1.96,.97,3.49,.97,3.49,0-1.73-2.05-9.15-2.05-9.15,0-.1-.02-.21-.03-.31-.23-3.46,.46-9.46,3-13.15,0,0-2.31,3.23-3,5.77Z"/><path class="cls-14" d="M231.36,170.86l-.23,.46c-.46,2.54,1.61,8.99,1.61,8.99h0c.4,1.52,.9,2.95,1.51,4.05,1.59,2.86,4.17,5.62,6.15,8.34-.67-1.15-1.55-2.67-2.69-4.65-2.81-4.87-4.66-8.52-5.64-11.72-.54-2.79-.71-5.47-.71-5.47Z"/></g></g><path class="cls-14" d="M434.28,241.58c-.13,3.04-.37,7.24-.73,10.21-3.33,43.98-24.91,82.97-55.7,113.92-93.29,94.12-252.25,78.43-325.38-32.04-2.62-4.03-5.83-9.05-8.14-13.26-.68-1.24-1.92-3.25-2.53-4.53-1.33-2.69-3.45-6.56-4.72-9.25-7.68-15.45-11.23-32.85-13.55-49.71-.21-2.19-.69-6.72-.9-8.93-.11-1.33-.17-3.25-.25-4.83,1.63,.91,3.38,.6,4.59,.16,.26,1.3,.55,2.59,.83,3.88,.51,2.07,1.66,6.3,2.19,8.44,3.57,12.78,8.26,25.14,14.04,36.87,1.39,2.96,2.73,5.93,3.96,8.95,.51,1.26,1.5,3.17,2.14,4.41,.46,.86,2.38,4.68,2.78,5.44,.36,.62,1.46,2.53,1.84,3.18,.92,1.55,2.75,4.91,3.72,6.33,.81,1.26,3.11,4.86,3.96,6.19,51.27,78.38,156.04,110.15,242.22,73.5,48.38-19.87,88.12-59.6,107.98-107.98,11.7-23.43,18.74-49.46,21.16-76.35,.22,3.36,.43,6.74,.61,10.13,.08,5.05,.2,10.22-.13,15.28Z"/><path class="cls-9" d="M455.2,184.78c-4.01-25.41-25.18-83.73-43.51-80.83-17.44,2.77-18.13,56.93-18.13,63.12,0,1.16,.93,2.1,2.09,2.11,1.16,0,2.1-.93,2.11-2.09,0-2.76,.06-5.47,.16-8.12,3.51-.05,7.01-.21,10.49-.5,.15,3.78,.35,7.66,.61,11.6-3.09,.27-6.19,.46-9.29,.57-1.16,.05-2.06,1.02-2.02,2.18,.05,1.16,1.02,2.06,2.18,2.02,3.15-.11,6.29-.31,9.42-.58,.27,3.6,.59,7.23,.97,10.87,.12,1.15,1.14,1.99,2.3,1.88,.33-.03,.65-.15,.93-.34-.12,.31-.17,.65-.12,1,.15,1.15,1.2,1.96,2.35,1.81,6.49-.75,12.93-1.79,19.32-3.11,.91,4.58,1.73,9.17,2.41,13.71,.17,1.15,1.24,1.94,2.39,1.77,.37-.05,.72-.21,1.01-.44,.57-.47,.86-1.2,.75-1.94-.69-4.63-1.52-9.31-2.46-13.98,3.83-.87,7.63-1.84,11.41-2.91,.18,.98,.35,1.94,.5,2.87,.21,1.34,.39,2.67,.53,3.94,.04,.4,.2,.79,.46,1.1,.73,.9,2.05,1.03,2.95,.3,.54-.45,.83-1.14,.75-1.85-.15-1.33-.34-2.72-.56-4.14Zm-53.65-56.89c2.16,.1,4.33,.09,6.48-.02-.05,3.23-.07,6.76-.06,10.53-2.78,.22-5.57,.35-8.36,.36,.54-3.92,1.19-7.57,1.94-10.87Zm10.69-.37c2.1-.24,4.18-.58,6.24-1.02,1.04,3.03,2.15,6.36,3.3,9.93-3.18,.66-6.39,1.17-9.61,1.55-.01-3.75,.02-7.26,.06-10.47Zm.08-4.24c.13-5.7,.31-10.1,.44-12.69,.92,2.42,2.45,6.53,4.34,11.91-1.58,.32-3.18,.59-4.78,.79Zm21.58,9.93c-2.65,.86-5.32,1.63-8.02,2.29-1.16-3.6-2.27-6.95-3.32-10.01,2.07-.58,4.11-1.27,6.12-2.05,1.72,2.89,3.47,6.16,5.22,9.78Zm-10.84,7.24c1.11,3.53,2.24,7.26,3.37,11.14-4.62,.97-9.29,1.72-13.99,2.25-.13-4.03-.21-7.93-.24-11.63,3.65-.41,7.27-1,10.86-1.76Zm4.09-.93c2.88-.71,5.73-1.54,8.55-2.48,1.59,3.5,3.14,7.18,4.6,10.93-3.23,1.01-6.49,1.91-9.78,2.7-1.13-3.88-2.26-7.61-3.37-11.15Zm14.63,12.39c1.36,3.7,2.63,7.43,3.78,11.12-3.6,1.08-7.23,2.06-10.88,2.91-.98-3.83-1.99-7.58-3.01-11.23,3.4-.82,6.77-1.75,10.11-2.8Zm-15.38-32.1c-1.72,.64-3.46,1.21-5.23,1.7-1.93-5.52-3.51-9.77-4.47-12.3,2.92,1.73,6.23,5.35,9.7,10.6Zm-17.85-9.29c-.13,2.72-.32,7.27-.45,13.14-1.83,.1-3.67,.12-5.52,.06,1.67-6.04,3.7-10.6,5.97-13.2Zm-10.45,44.24c.22-4.12,.55-8.07,.98-11.81,2.98,0,5.96-.11,8.92-.34,.04,3.71,.12,7.61,.25,11.65-3.37,.28-6.76,.45-10.15,.5Zm14.49,3.29c5.03-.56,10.04-1.36,14.99-2.41,1.03,3.64,2.04,7.39,3.01,11.21-5.75,1.21-11.56,2.14-17.4,2.79-.26-3.93-.46-7.81-.61-11.59Zm2.66,27.25s-.04,0-.06,0c-.32,.04-.61,.16-.87,.33,.11-.3,.17-.63,.13-.96-.38-3.62-.7-7.25-.97-10.84,6.09-.67,12.14-1.64,18.12-2.9,.91,3.73,1.78,7.51,2.59,11.32-6.27,1.3-12.59,2.32-18.96,3.05Zm23.06-3.94c-.81-3.81-1.68-7.6-2.6-11.34,3.72-.87,7.41-1.87,11.07-2.97,1.15,3.94,2.14,7.78,2.94,11.38-3.78,1.08-7.59,2.06-11.42,2.93Z"/><path class="cls-14" d="M445.74,129.54c-.38-.25-.82-.37-1.27-.34-1.16,.06-2.05,1.05-1.98,2.21l1.48,26.53c.09,1.11,1.04,1.95,2.15,1.92,1.16-.03,2.07-1,2.04-2.15l-1.22-21.73c10.83,11.13,13.82,35.3,14.17,38.58-.82,2.24-5.08,12.67-16.27,18.3-5.73,2.91-9.47,8.22-11.88,13.63-1.21-4.38-3.48-8.4-6.61-11.69-3.62-3.74-7.46-7.25-11.49-10.53-7.5-6.32-14.59-12.3-20.45-23.46-8.96-17.03-11.75-23.11-11.79-23.16-.34-.74-1.07-1.22-1.88-1.23-1.16-.02-2.11,.91-2.13,2.07-.03,.96-.32,18.9,2.68,32.75-.53-.77-.84-1.29-.84-1.29-.42-.69-1.19-1.08-1.99-1-1.15,.11-2,1.13-1.89,2.29,.99,8.15,3.01,16.14,6.01,23.77,6.52,16.34,16.67,26.28,29.38,28.74l.13,.02,16.86,2.2s.02,0,.02,0l1.32,8.31c.06,.36,.21,.69,.43,.98,.72,.91,2.04,1.06,2.95,.33,.59-.47,.89-1.22,.77-1.97l-1.36-8.56c5.2-1.68,10.05-4.32,14.26-7.81,1.98-1.6,3.84-3.35,5.56-5.23,11.64-12.73,12.46-36.24,12.5-37.23,0-.15-.01-.29-.04-.44-.3-2.85-3.73-34.46-19.61-44.82Zm-62.81,18.23c1.81,3.57,4.33,8.47,7.75,14.97,6.25,11.89,14.01,18.4,21.46,24.72,3.91,3.18,7.63,6.59,11.15,10.2,5.67,6.02,6.74,13.09,6.56,18.23-.17,.72-.32,1.41-.44,2.06-3.27-8.56-10.95-24.56-23.51-27.35-6.8-1.51-12.7-5.95-17.1-10.33l-.08-.16c-4.17-7.31-5.43-22.49-5.79-32.34Zm29.75,71.83c-19.66-3.87-27.56-27.26-30.44-40.19,4.89,5.73,12.84,13.1,22.77,15.3,11.48,2.56,18.66,19.58,21.18,26.67l-13.51-1.78Zm37.1-10.42c-4.44,4.96-9.98,8.83-16.17,11.28,.21-1.25,.34-2.52,.41-3.78,1.59-6.7,5.12-16.21,12.73-20.06,5.19-2.64,9.69-6.46,13.14-11.16-1.39,7.53-4.25,17.33-10.1,23.73Z"/><path class="cls-9" d="M11.6,154.68c-13.37,12.57-14.92,41.89-6,55.87-2.23,22.82,17.79,42.42,25.61,43.8,16.14-15.49,15.01-32.71,12.05-46.43-.76-3,16.99-17.77,6.31-44.51-1.43-3.13,10.26-12.92,11.11-27.92,.46-16.49-5.48-16.74,5.49-31.27-29.73-1.28-54.73,23.92-54.58,50.44Zm16.7,57c6.61,.41,9.46,6.69,9.18,14.39-.3,7.71-6.01,15.97-12.38,15.98-6.61-.41-11.78-12.14-11.5-19.84,.57-7.3,8.76-10.78,14.7-10.53Zm5.14-47.24c7.12,2.98,8.88,15.73,5.18,24.46-3.68,8.72-10.98,14.52-18.08,11.53-7.1-2.99-12.44-14.05-8.73-22.76,3.7-8.73,13.85-16.36,21.63-13.23Zm-5.68-33.38c4.33-6.81,13.39-12.58,18.99-9.22,5.62,3.35,5.81,13.64,1.74,20.87-3.66,6.94-9.98,11.56-15.58,8.2-5.62-3.35-8.55-12.48-5.16-19.84Z"/><path class="cls-9" d="M227.34,411.62v11.79c-67.78-.15-135.1-32.28-175.82-93.78-2.62-4.03-5.83-9.05-8.14-13.26-.68-1.25-1.92-3.25-2.53-4.53-1.32-2.69-3.45-6.56-4.72-9.25-7.68-15.46-11.23-32.85-13.55-49.72-.21-2.19-.69-6.72-.91-8.93-.03-.33-.05-.7-.08-1.08,1.84,.78,3.75,.56,5.22,.14,0,.05,.02,.1,.03,.15,.52,2.08,1.66,6.3,2.2,8.44,3.57,12.78,8.26,25.15,14.04,36.88,1.39,2.95,2.73,5.92,3.96,8.95,.51,1.26,1.5,3.16,2.14,4.4,.46,.87,2.38,4.68,2.78,5.45,.36,.61,1.46,2.52,1.84,3.18,.92,1.55,2.75,4.92,3.72,6.34,.82,1.26,3.11,4.86,3.96,6.18,36.69,56.09,100.78,88.32,165.85,88.67Z"/><path class="cls-14" d="M227.45,415.64s-11.36,.32-30.06-2.5c-18.7-2.81-91.66-22.24-112.27-43.43l20.31,17.55,26.78,15.76,30.08,12.63,49.87,9.86h16.88l-1.59-9.87Z"/></g></g></g></svg>