<?xml version="1.0" encoding="UTF-8"?><svg id="Camada_2" xmlns="http://www.w3.org/2000/svg" viewBox="0 0 585.76 149.71"><defs><style>.cls-1{fill:none;}.cls-2{letter-spacing:.01em;}.cls-3{letter-spacing:0em;}.cls-4{letter-spacing:0em;}.cls-5{letter-spacing:-.03em;}.cls-6{letter-spacing:0em;}.cls-7{fill:#fff;}.cls-8,.cls-9,.cls-10,.cls-11,.cls-12{fill:#262626;}.cls-13,.cls-14{fill:#3a3a3a;}.cls-15{letter-spacing:-.02em;}.cls-9,.cls-10,.cls-11,.cls-12{stroke:#262626;stroke-miterlimit:10;}.cls-9,.cls-14{fill-rule:evenodd;}.cls-16{letter-spacing:-.04em;}.cls-17{letter-spacing:-.01em;}.cls-11{font-size:72.68px;}.cls-11,.cls-12{font-family:Calimate-Medium, Calimate;font-weight:500;}.cls-12{font-size:65.33px;}.cls-18{letter-spacing:-.03em;}.cls-19{letter-spacing:-.03em;}</style></defs><g id="Camada_1-2"><g><g><path class="cls-1" d="M126.14,99.8c.26,.38,.55,.64,.85,.8,.75,.42,1.55,.28,2.11,.07,.43-.16,.71-.34,.71-.34"/><path class="cls-13" d="M104.41,141.89v5.41c31.13-.07,62.05-14.83,80.75-43.07,1.2-1.85,2.68-4.15,3.74-6.09,.31-.57,.88-1.49,1.17-2.08,.61-1.23,1.58-3.02,2.16-4.25,3.53-7.1,5.16-15.09,6.22-22.83,.1-1.01,.32-3.09,.42-4.1,.07-.84,.1-2.17,.15-2.94,.22-3.88,.04-7.8-.25-11.67-.49,4.8-1.23,9.54-2.28,14.24-.24,.95-.76,2.89-1.01,3.88-1.64,5.87-3.79,11.55-6.45,16.93-.63,1.36-1.25,2.72-1.82,4.11-.24,.58-.69,1.45-.98,2.02-.21,.4-1.09,2.15-1.28,2.5-.17,.28-.67,1.16-.84,1.46-.42,.71-1.26,2.25-1.71,2.91-.38,.58-1.43,2.23-1.82,2.84-16.85,25.76-46.29,40.56-76.17,40.72Z"/><path class="cls-14" d="M91.09,58.42l-3.23,.2c-18.5,1.29-36.43,4.67-53.54,9.9,25.46,2.4,49.66,10.9,70.75,24.48,22.01-13.74,44.53-21.96,70.45-24.46-17.11-5.24-35.04-8.62-53.54-9.92l-3.23-.2c-2.93-.17-5.87-.28-8.82-.34,0,0-14.94,.12-18.85,.34Z"/><path class="cls-9" d="M137.15,123.79c7.72-3.84,15.92-6.84,24.51-8.89-6.18,5.43-13.1,10.02-20.61,13.59-1.28-1.58-2.57-3.16-3.9-4.71"/><path class="cls-9" d="M132.77,118.9c11.38-5.87,23.81-10,36.93-12.03,2-2.27,3.89-4.65,5.66-7.11-16.93,1.72-32.88,6.74-47.2,14.41,1.56,1.54,3.1,3.12,4.6,4.74"/><path class="cls-9" d="M112.95,100.94c21.41-12.85,46.37-20.4,73.05-20.84,.81-2.08,1.54-4.2,2.2-6.36-29.66,.05-57.34,8.52-80.79,23.15,1.87,1.31,3.72,2.65,5.54,4.04"/><path class="cls-9" d="M123.33,109.58c16.9-9.39,36.04-15.24,56.41-16.55,1.25-2.12,2.41-4.29,3.48-6.52-23.6,.86-45.72,7.55-64.97,18.65,1.72,1.43,3.41,2.9,5.07,4.41"/><path class="cls-14" d="M39.42,106.42c23.94,3.71,45.56,14.43,62.69,30.02,3.02,.13,6.04,.11,9.06-.05-20.19-20.38-47.23-33.97-77.38-37.04,1.76,2.46,3.64,4.82,5.63,7.08Z"/><path class="cls-14" d="M90.87,135.22c-12.64-9.79-27.39-16.99-43.44-20.81,12.04,10.58,26.97,17.96,43.44,20.81Z"/><path class="cls-14" d="M25.97,86.17c1.07,2.21,2.22,4.38,3.47,6.49,35.43,2.27,67.1,18.35,89.68,42.92,2.44-.36,4.86-.82,7.23-1.37-24.58-28.27-60.33-46.57-100.38-48.04Z"/><path class="cls-14" d="M30.78,73.79s0-.03-.02-.04l-7.57,6.04c44.15,.72,83.53,21.01,109.86,52.58,2.13-.68,4.24-1.43,6.3-2.27-25.99-32.12-64.76-53.46-108.58-56.3Z"/><polyline class="cls-1" points="32.44 73.35 30.14 75.19 22.53 81.26"/><g><path class="cls-7" d="M104.26,53.93l-.48,1.5-.12,1.48,.14,1.95,.37,2.95-1.35,3.69-.42,1.55-.49,.98-.12,1.31-.06,1.08,.44,.89-.04,2.27,.5,2.48,.36,1.19-5.12,.31v-2.21l.55-2.67-1.3-21.28-2.76-1.94-2.18-1.06-1.41,3.39,1.06,14.14,.74,1.58,1.27,2.85,1.19,3.5-3.37,.62-.93-2.41-.48-3.34,.13-3.66-3.69-18-.74-1.05-.77-1.6-1.18-4.69s-2.14-9.07-.81-13.24,2.78-6.52,2.78-6.52c0,0,4.16-5.07,5.59-5.13s4.4-1.69,7.01-.93c0,0,2.16-2.69,5.09-2.54l1.6,.17s1.08-4.06,3.03-4.68c0,0,1.87-1.24,4.22-.33l1.56-.69,1.81,.58,2.18,.43,.94,.99,.25,1.12,1.11,1.48,1,.44,.97-.32s1.56-.65,1.86-.43,.92,.56,.92,.56l1.51,1.24,.41,.63-.47,.74-1.2,1.17-1.52,.74-1.65,.23-.74-.02-.09,.23,1,1.58,1.06,2.44,.04,1.38-.56,2.76,.08,.5,.36,.75,1.73,5.89,.97,4.06s.11,1.44-.35,2.52-.76,2.14-.76,2.14l-.94,2.71-.08,1.51-.27,1.46-.43,.46,.06,.45-.57,4.12-.98,2.83-.99,2.81-1.14,3.66,.3,3.99,.27,1.47-.37,2.05-.22,1.62,.02,1.68,.37,2.19,.95,1.75,1.08,3.22-4.51,.09-.94-2.08,.58-4.76,.22-4.57-.54-9.54-.34-1.21-1.42,1.08-1.63,1.76-5.24-5.69-3.94,1.21Z"/><g><path class="cls-10" d="M127.19,12.51c-.21-.64-2.12-2.12-3.07-2.33-.95-.21-2.6,.58-2.6,.58,0,0-.64-.32-1.48-.85-.27-.17-.45-.36-.59-.56,.1-.19,.11-.34,.75-1.72,.64-1.38,.53-1.91,0-2.23s-2.6,1.25-2.6,1.25h0c-.25-.15-.51-.25-.74-.25-.74,0-2.33-.42-2.86-.53s-.95,.53-1.48,.42c-.08-.02-.17-.01-.29,0-1.22-.37-2.65-.16-3.3-.05-.62-.11-1.2-.08-1.45,.31-.14,.22-.14,.46-.07,.7-1.48,1.07-2.27,4.07-2.27,4.07l.17,.03c.28-1.88,2.21-3.82,2.21-3.82h0c.3,.56,.9,1.03,.9,1.03l.11,.21h0c-.1,.16-.19,.32-.27,.48h0s-1.18,1.88-1.18,1.88c0,0,0,0,0,0,0,0-.04,.03-.05,.05-.19,.19-.39,.34-.52,.34-.32,0-2.44-.53-3.92-.21-.97,.21-3.02,1.32-4.12,2.36,0,0-4.14-.14-6.79,.92-2.65,1.06-3.71,2.86-3.71,2.86,0,0-2.97,2.97-4.34,6.68-1.38,3.71-1.17,7.95-.42,12.72,.74,4.77,2.81,10.22,2.81,10.22,0,0-1.43-5.56-2.28-8.21-.85-2.65-.95-9.43-.53-12.19,.42-2.76,1.17-3.5,2.54-5.83,1.38-2.33,3.6-4.87,5.93-5.93,2.33-1.06,6.51-.95,6.51-.95h0c-.4,.45-.58,.86-.36,1.17,.74,1.06,1.8,.42,3.29,.64,.93,.13,1.36,.6,1.86,.85h0c-.06-.11-2.92,2.65-3.24,4.24,0,0,2.27-3.63,3.68-4.09,.19,.03,.41,.02,.66-.04,1.07-.27,2.73-.76,3.49-1.41-.02,.28-.09,1.35,0,2.26,.11,1.06,.68,2.09,.69,2.81,0,.41-.37,1.22-.69,1.43-.32,.21-.95,.74-.95,1.8s-.11,1.59,.42,2.23c.53,.64,1.17,.74,1.27,.64s.32-.74,.95-.74c.5,0,1.14,.13,1.76,.19h0s0,0,0,0c.15,.01,.31,.02,.46,.02,.74,0,1.59-.21,2.01,.11,.3,.22,.55,.13,.66,.06,0,0,.01,0,.02,0,.17-.06,.57-.36,.79-.48,.36-.18,.34-.83,.26-1.41,.18-.13,.92-.67,1.65-1.13,.85-.53,.64-2.54,.64-2.54,0,0-.21,.53-.32,1.17s-2.01,2.23-2.01,2.23c-.11-.64,.42-2.23,.42-2.23,0,0-.53,.85-.64,1.91-.11,1.06,.26,1.11,.05,1.43s-1.06,.85-1.06,.85l.14,.08h0c-.22-.13-.68-.38-1.15-.45-.04,0-.09-.01-.13-.01h0s-.4-.83-.61-1.05,.11-.64,.53-1.06,.11-1.27-.42-1.59-1.59,.21-2.12,.21-.95-.21-1.48-.21-1.23,.5-1.38,.95c-.26,.79,.53,1.48,.53,1.48,0,0,.11,0,.32,.53,.21,.53-.84,1.03-.85,1.03-.19-.19-.38-.45-.42-.82-.11-.85-.21-2.01,.32-2.44,.53-.42,1.27-1.48,1.27-1.91s-.53-2.23-.64-2.76c-.1-.48-.28-2.24-.31-2.59,.14-.12,.25-.25,.31-.38,0,0-2.86,1.48-3.92,1.59-1.06,.11-2.23-1.06-2.76-1.06s-2.86,.32-3.18-.53c-.32-.85,2.33-2.54,3.6-2.97,1.27-.42,4.34-.11,4.87-.11,1.11-.16,1.75-2.7,3.39-4.24,.74-.85,2.33-.95,2.65-.85s.74-.32,1.27-.64,.95,.21,1.7,.42c.74,.21,1.59,.11,2.44,.64,.1,.06,.19,.14,.27,.21l.24,.28s0,0,0,.01c.02,.04,.14,.29,.29,.59,.13,.36,.21,.73,.36,1.02,.16,.33,.66,.79,1.15,1.17-.27,.29-.74,1.07-.83,1.7,0,0,.77-1.18,1.18-1.44,.33,.23,.61,.38,.73,.38,.32,0,2.33-.95,3.18-.53s2.23,1.7,2.23,2.12-2.33,2.12-3.29,2.54c-.4,.18-.91,.23-1.37,.23-.35,0-.7-.11-.99-.31l-1.67-1.18c.21,.74,1.59,1.48,1.59,1.48,.11,.11,.95,.32,2.01,.32s1.91-1.17,2.23-1.27,2.12-1.38,1.91-2.01Zm-16.11,10.49c.42-.32,.85,.11,1.06-.21s.11-.53,.11-.53c0,0,.42,.21,.32,.64-.11,.42-.74,1.06-1.48,.95,0,0-.42-.53,0-.85Zm-2.86,.95c-.74-.42-.53-1.38-.53-1.38,0,.42,.32,.64,.74,.64s.53,1.17-.21,.74Zm2.51-17.08c-.26-.13-.73-.33-1.24-.48,.95-.29,2.39,0,2.39,0h0c-.34,.1-.74,.27-1.15,.48Z"/><path class="cls-10" d="M103.45,14.1c.32,.42,2.33-.53,3.6,.21v-.64s-1.06-1.27-2.33-1.38c-1.27-.11-3.18-.21-3.5,.32-.32,.53-.21,1.17,.74,.85,.95-.32,1.8-.85,2.44-.21,.64,.64-1.27,.42-.95,.85Z"/><path class="cls-10" d="M107.69,12.4l-.11,.42c-.21,.11-.21,.42-.21,.42,0,.85,.53,.85,.53,.85l.85,1.17s-.11-.53-.53-1.06-.53-1.8-.53-1.8Z"/><path class="cls-10" d="M117.12,13.46s1.17,.64,1.38,.11-.42-1.17-.53-1.38,.11-.64,.11-.64c0,0-.64,.74-.95,1.27-.32,.53-1.17,1.48-1.17,1.48,.53,0,1.17-.85,1.17-.85Z"/><path class="cls-10" d="M110.76,27.34c-1.17-.21-2.01-.85-2.01-.85,0,0,.11,.74,.85,.95,.74,.21,1.59,.32,2.33,.21s1.48-1.17,1.48-1.17c0,0-1.48,1.06-2.65,.85Z"/><path class="cls-10" d="M109.28,15.47c.11-.32-.21-1.38-.53-1.7s-.53-1.17-.53-1.17c0,0,.11,1.06,.53,1.48s.53,1.38,.53,1.38Z"/><path class="cls-10" d="M116.17,12.93c.53-.42,1.17-1.8,1.17-1.8,0,0-.95,1.48-1.48,1.8-.53,.32-1.06,1.38-1.06,1.38,0,0,.85-.95,1.38-1.38Z"/><path class="cls-10" d="M112.99,11.97s0,0,0,0c0,.01,0,0,0,0Z"/><path class="cls-10" d="M112.88,7.84c-.21-.53-.53-.53-.53-.53,0,0,.42,.85,.21,1.59,0,0,.53-.53,.32-1.06Z"/><path class="cls-10" d="M118.71,17.59c.32-1.06,.11-3.6,.11-3.6,0,0,0,2.76-.53,3.71-.53,.95-.95,1.59-.95,1.59,0,0,1.06-.64,1.38-1.7Z"/><path class="cls-10" d="M124.33,12.19c.53-.11,1.27,0,.85-.74s-1.8-.53-2.76-.32-1.91,1.8-2.01,1.91c0,0,.11,.53,.74,.64,.64,.11,1.48,.42,1.7,0s-.95-.32-.74-.64,2.23,.21,2.33-.11-.85-.21-.95-.53c-.11-.32,.32-.11,.85-.21Z"/><path class="cls-10" d="M116.06,33.06s.32-4.77,.95-6.57c.64-1.8,1.06-3.71,1.06-3.71,0,0-.85,1.38-1.38,3.71-.53,2.33-.85,5.09-.64,6.57Z"/><path class="cls-10" d="M117.99,29.1c-.08,.16-.13,.25-.13,.25,.04-.08,.09-.16,.13-.25Z"/><path class="cls-10" d="M120.09,23.53c.32-2.23,.32-2.97,.32-2.97-.1,.41-1.19,6.06-2.41,8.54,.43-.85,1.83-3.7,2.1-5.58Z"/><path class="cls-10" d="M122.53,24.8c-.11,1.06-.32,5.09-1.48,6.15-1.17,1.06-2.12,4.24-2.12,4.24,0,0,1.59-3.39,2.12-3.81,.53-.42,1.8-3.81,1.8-6.04s1.03-4.97,.74-5.72c-1.22-3.13-2.54-4.13-2.54-4.13,0,0,2.01,3.29,2.12,4.45,.11,1.17-.53,3.81-.64,4.87Z"/><path class="cls-10" d="M113.84,36.24c-.74-.64-.85-2.76-.85-4.03s-1.17-3.5-2.12-3.92c-.19-.09,1.59,1.8,1.7,4.24s.11,4.13,1.38,4.13,2.01-1.7,2.01-1.7c0,0-1.38,1.91-2.12,1.27Z"/><path class="cls-10" d="M116.38,37.3c1.17-.53,2.44-3.6,2.76-4.87,.18-.73,.72-2.06,1.12-2.96-.56,.87-1.43,2.21-1.65,3.6-.32,2.01-2.42,4.33-2.23,4.24Z"/><path class="cls-10" d="M122.95,24.06s.53,2.54,.95,3.92c.42,1.38,1.8,6.15,2.01,7.74,.21,1.59-1.27,3.81-1.59,4.66-.32,.85-.42,2.54-.64,3.71-.21,1.17-.74,2.23-.74,2.23t.35-.5c-.1,.56-.69,3.69-.88,4.95-.21,1.38-2.86,8.16-3.07,9.22-.21,1.06,.32,3.71,.53,4.56,.06,.25,.03,.79-.04,1.44,0,.01-.18,.89-.91,.68-.74-.21-1.06-.64-1.06-.64,0,0,.47,1.48,1.77,1.38-.2,1.28-.45,2.59-.5,3.07-.11,.95,.85,2.44,1.27,3.07,.42,.64,1.06,2.76,1.06,2.76,0,0,.21,.42-.53,.64-.74,.21-2.97-.11-3.39-.32-.42-.21-.64-.95-.85-1.59-.16-.48,.19-1.94,.26-2.6,.13-.52,.32-2.05,.58-3.02,.32-1.17-.11-7.21-.21-8.69-.11-1.48,2.33-5.3,3.07-8.27,.74-2.97,.02-4.43,.02-4.43,.29-.33,.59-.74,.82-1.5,.53-1.7-.53-2.33-.53-2.33,0,0,1.17-.95,2.12-3.29,.95-2.33-.21-5.19-.21-5.19,0,0,.53,3.6-.11,5.09-.64,1.48-2.12,3.5-2.12,3.5,.85,.53,.64,2.23-.32,3.5-.95,1.27-1.48,3.71-1.8,4.87-.32,1.17-2.01,2.76-3.5,2.23-1.48-.53-1.38-3.18-1.38-3.18-.39,3.23,.93,4.56,3.06,3.41l-.51,.41s-.23,.34-.56,.74h0c-.46,.54-1.11,1.17-1.66,1.17-.95,0-1.06-2.65-1.48-3.29-.4-.59-1.44-2.02-1.57-2.2,.08,.12,.31,.64,.59,1.34-.56-.64-1.68-1.62-3.57-1.79-2.44-.21-3.39,.32-3.71-.74-.02-.06,.06,.9,.08,1.92,0,0-.4,2.1-.72,3.48-.32,1.38,.21,2.76,.32,5.09,.11,2.33-.53,2.76-.74,3.29,0,0-.64,1.38-1.7,.85-1.06-.53-1.17-.85-1.17-.85,0,0,.33,2.25,2.18,2.02,0,0,0,0,0,0-.42,1.41-.84,3.16-.59,3.91,.42,1.27,.21,3.29,.21,4.03s.74,2.23,.74,2.23c-1.89,.63-4-.11-4.6-.35,.07-.81,.23-2.15,.47-3.04,.32-1.17,1.17-3.07,1.27-3.81s-.21-3.29-.21-3.92-.64-7.63-.95-9.11c-.32-1.48-.85-5.09-.85-5.09,0,0,.3-.87,.34-1.27,.01-.05,.02-.11,.01-.18,.05-.95-.39-1.79-.67-2.58-.11-.3-.26-.67-.42-1.08-.3-1.02-.71-2.39-1.06-3.53,0-.05,0-.11,0-.16,0-1.27-.85-2.97-.85-2.97,0,0,.08,.39,.19,.95h0s.13,3.6-.09,5.3c-.21,1.7,1.17,3.5,1.17,3.5,0,0-.74-.32-2.12-.74-1.26-.39-7.1-5.41-7.87-5.92l-.05-.06c-1.24-2.59-1.94-7.9-1.94-7.9-.32,2.65,1.38,7.31,1.38,7.31,0,0,.03,.06,.09,.15-.57,4.93,1.61,10.02,1.71,10.23,.11,.21-.11,.85-.42,2.12-.32,1.27,.64,2.54,.64,2.54,0,0-.21,.74-.64,1.27s-1.17,1.48-1.27,2.54c-.11,1.06,.64,.53,.64,1.06s-.64,1.27-.64,1.27c0,0,.95-.21,1.7-.21s1.59-.53,1.59-.53l.87,4.04,.15,1.93h0c.01,1.09,.08,2.66,.15,3.14,.11,.74,.85,1.7,.85,2.23s-.32,1.17,0,1.48,1.27,.42,1.91,.53,.95-.53,.95-.53c0,0,.64,.53,1.06,.53s.95-.64,.95-.64c0,0-.64-.95-.85-1.27-.08-.12-.26-.58-.46-1.11h0s-1.04-3.07-1.04-3.07c-.53-1.78-1.53-5.1-1.68-5.56-.21-.64-.11-2.01,0-3.07,.11-1.06-.21-4.45-.11-4.98s.64-1.91,.53-2.76,.04-3.88,.04-3.88l1.8,1.13h0c.29,.56,.79,1.38,1.34,1.59,.85,.32,1.17,.32,1.17,.32,0,0-.42,2.01-.42,4.56s.32,3.07,.21,5.3c-.11,2.23-.42,5.62-.74,6.25-.32,.64-.21,1.38,0,2.54,.21,1.17,.11,1.91,.11,2.01s.53,.85,1.17,.95c.64,.11,.74-.21,.74-.21-.22,.6-.13,1.78-.06,2.42-.02,.04-.05,.09-.09,.16-.15,.3-.35,.86-.28,1.55,.11,1.06,1.27,1.06,1.48,.95,.21-.11,1.38-.32,1.38-.32l1.59,.53s1.38-.42,1.38-1.38-.85-2.76-.95-3.29c-.11-.53,0-2.76-.32-3.81-.32-1.06,0-2.76,.32-3.6,.32-.85,1.17-2.76,1.59-3.81,.42-1.06,.11-3.92-.11-5.19-.21-1.27,.2-3.39,.2-3.39v-.09c.13,.86,3.95,0,4.56,.41,.64,.42,.85,3.29,2.12,4.13,1.27,.85,3.13,.72,4.1-1.9-.03,.04,.4-.5,.65-.89,.08,.61,.31,2.75,.22,4.81-.11,2.44,.32,2.97,1.06,5.19,.58,1.73,.26,4.56,.08,5.73,0,.01-.3,1.69-.4,2.22-.11,.53,.26,2.17,.26,2.17-.53,.32-.26,2.49-.26,2.49,0,0,1.7,.74,2.44,.53,.74-.21,.95-.85,1.06-.95s1.8,.95,1.8,.95c0,0,1.38-.42,1.06-1.38-.32-.95-1.27-2.01-1.27-2.76s-1.38-3.18-1.8-4.03c-.42-.85,.32-4.13,.42-5.93,.11-1.8-.42-3.29-.42-4.56s1.27-5.72,2.65-9.01c1.27-3.03,1.05-5.74,1.01-6.14,.05-.06,.1-.13,.15-.21,.53-.74,.64-3.18,.85-3.71,.21-.53,1.48-3.5,1.91-5.51,.42-2.01-1.27-5.72-1.59-6.68-.32-.95-1.7-5.62-1.7-5.62Zm-29.25,46.17s1,3.28,.96,3.42c-.11,.32-2.44,.32-2.86,.11-.42-.21-1.27-1.38-1.27-2.33,0-.61-.13-3.62-.22-4.15,.19,.19,.56,.44,1.28,.66,.92,.28,1.7,1.52,2.12,2.3Zm25.94-2.83l.2-1.42c-.05,.44-.12,.93-.2,1.42Z"/><path class="cls-10" d="M111.72,33.7c-.21-1.48-2.01-5.51-2.12-5.4,0,0,1.17,3.5,1.48,4.66,.32,1.17,.42,3.07,1.48,5.09,1.06,2.01,1.59,5.19,1.59,5.19,0,0-.53-4.24-1.17-5.09-.64-.85-1.06-2.97-1.27-4.45Z"/><path class="cls-10" d="M110.41,41.35c.87,1.5,.99,1.68,.99,1.68-.23-.56-.58-1.12-.99-1.68Z"/><path class="cls-10" d="M115.53,44.61c-.11-1.38,.42-6.36,.42-6.36-.95,1.7-.41,6.57-.42,6.36Z"/><path class="cls-10" d="M115.64,52.03c-1.06,.21-2.01-1.8-2.65-5.09,0,0,0,1.91,.64,3.5,.64,1.59,1.17,2.76,2.33,2.01,1.17-.74,1.17-3.71,1.59-6.15,.42-2.44,1.59-2.86,1.59-4.87s2.23-3.6,2.44-4.77c.21-1.17,0-2.86,0-2.86,0,0,.11,2.01-.85,3.5-.95,1.48-1.59,2.97-1.8,4.13-.21,1.17-1.38,3.07-1.59,4.56-.21,1.48-.64,5.83-1.7,6.04Z"/><path class="cls-10" d="M110.67,51.95s-.02-.02-.02-.02c0,0,0,.01,.02,.02Z"/><path class="cls-10" d="M105.78,39.74c.42,2.54,3.29,4.45,3.29,4.45-1.06-.95-3.38-5.01-3.29-4.45Z"/><path class="cls-10" d="M101.86,43.66c1.17,.53,2.23,.95,2.23,.95,0,0-3-1.63-3.6-3.19,.17,.69,.57,1.87,1.38,2.24Z"/><path class="cls-10" d="M95.72,33.17c.64-2.12,1.17-6.04,1.17-6.04,0,0-.74,3.39-1.8,5.51-.08,.16-.15,.33-.21,.51-.7,2.13,.21,5.11,.21,5.11,0,0,0-2.97,.64-5.09Z"/><path class="cls-10" d="M85.75,27.13c0,2.54-.74,4.66-.74,4.87,0,0,1.38-2.44,1.27-4.34-.11-1.91,.42-6.36,.42-6.36,0,0-.95,3.29-.95,5.83Z"/><path class="cls-10" d="M119.45,20.35s1.17-1.59,1.17-2.65c0-.76-.6-1.74-.94-2.23,.26,.65,.49,2.09,.41,2.34-.11,.32-.64,2.54-.64,2.54Z"/><path class="cls-10" d="M114.23,7.89h0l.28-.47c.14-.17,.25-.32,.28-.43,.05-.19-.01-.08-.15,.18h0s-.56,.72-.56,.72h0c-.36,.36-.77,.74-.98,1.01-.32,.4-.23,2.1-.16,2.81-.12-1.5,.31-2.44,.9-3.23,.14-.19,.27-.39,.39-.58Z"/><path class="cls-10" d="M105.68,21.3c-.32,1.17-.42,2.65-.32,3.5,.01,.08,.03,.18,.06,.28h0s0,.01,0,.01c.03,.09,.06,.18,.09,.28l.61,1.83h0c.02,.08,.04,.15,.06,.22h0s0,0,0,0c.23,.9,.44,1.6,.44,1.6,0-.79-.94-4.2-.94-4.2,0-.05,0-.1-.01-.14-.11-1.59,.21-4.34,1.38-6.04,0,0-1.06,1.48-1.38,2.65Z"/><path class="cls-10" d="M106.26,31.32l-.11,.21c-.21,1.17,.74,4.13,.74,4.13h0c.18,.7,.41,1.36,.69,1.86,.73,1.32,1.92,2.58,2.82,3.83-.31-.53-.71-1.22-1.23-2.14-1.29-2.24-2.14-3.91-2.59-5.38-.25-1.28-.32-2.51-.32-2.51Z"/></g></g><path class="cls-10" d="M199.45,63.8c-.06,1.4-.17,3.32-.34,4.69-1.53,20.2-11.44,38.11-25.58,52.32-42.85,43.23-115.85,36.02-149.44-14.72-1.2-1.85-2.68-4.16-3.74-6.09-.31-.57-.88-1.49-1.16-2.08-.61-1.23-1.58-3.01-2.17-4.25-3.53-7.1-5.16-15.09-6.22-22.83-.1-1.01-.32-3.09-.42-4.1-.05-.61-.08-1.49-.11-2.22,.75,.42,1.55,.28,2.11,.07,.12,.6,.25,1.19,.38,1.78,.24,.95,.76,2.89,1.01,3.88,1.64,5.87,3.8,11.55,6.45,16.93,.64,1.36,1.25,2.72,1.82,4.11,.24,.58,.69,1.46,.98,2.02,.21,.39,1.09,2.15,1.28,2.5,.17,.28,.67,1.16,.84,1.46,.42,.71,1.26,2.25,1.71,2.91,.37,.58,1.43,2.23,1.82,2.84,23.55,36,71.67,50.59,111.25,33.76,22.22-9.12,40.47-27.37,49.59-49.59,5.38-10.76,8.61-22.71,9.72-35.07,.1,1.54,.2,3.09,.28,4.65,.04,2.32,.09,4.69-.06,7.02Z"/><path class="cls-13" d="M209.06,37.71c-1.84-11.67-11.57-38.45-19.98-37.12-8.01,1.27-8.32,26.15-8.33,28.99,0,.53,.43,.97,.96,.97,.53,0,.97-.43,.97-.96,0-1.27,.03-2.51,.07-3.73,1.61-.02,3.22-.1,4.82-.23,.07,1.74,.16,3.52,.28,5.33-1.42,.12-2.84,.21-4.27,.26-.53,.02-.95,.47-.93,1,.02,.53,.47,.95,1,.93,1.45-.05,2.89-.14,4.33-.27,.12,1.65,.27,3.32,.45,4.99,.05,.53,.53,.91,1.05,.86,.15-.02,.3-.07,.43-.15-.05,.14-.08,.3-.06,.46,.07,.53,.55,.9,1.08,.83,2.98-.34,5.94-.82,8.87-1.43,.42,2.1,.79,4.21,1.11,6.3,.08,.53,.57,.89,1.1,.81,.17-.02,.33-.09,.46-.2,.26-.22,.39-.55,.34-.89-.32-2.13-.7-4.28-1.13-6.42,1.76-.4,3.51-.85,5.24-1.34,.08,.45,.16,.89,.23,1.32,.1,.62,.18,1.23,.24,1.81,.02,.19,.09,.36,.21,.51,.34,.41,.94,.47,1.35,.14,.25-.21,.38-.52,.34-.85-.07-.61-.16-1.25-.26-1.9Zm-24.64-26.13c.99,.05,1.99,.04,2.98,0-.02,1.48-.03,3.1-.03,4.83-1.28,.1-2.56,.16-3.84,.17,.25-1.8,.55-3.48,.89-4.99Zm4.91-.17c.96-.11,1.92-.27,2.87-.47,.48,1.39,.99,2.92,1.52,4.56-1.46,.3-2.93,.54-4.41,.71,0-1.72,0-3.33,.03-4.81Zm.04-1.95c.06-2.62,.14-4.64,.2-5.83,.42,1.11,1.13,3,1.99,5.47-.73,.15-1.46,.27-2.19,.36Zm9.91,4.56c-1.22,.4-2.45,.75-3.68,1.05-.53-1.65-1.04-3.19-1.52-4.6,.95-.27,1.89-.58,2.81-.94,.79,1.33,1.59,2.83,2.4,4.49Zm-4.98,3.32c.51,1.62,1.03,3.34,1.55,5.12-2.12,.45-4.27,.79-6.42,1.03-.06-1.85-.09-3.64-.11-5.34,1.67-.19,3.34-.46,4.99-.81Zm1.88-.43c1.32-.33,2.63-.71,3.93-1.14,.73,1.61,1.44,3.3,2.11,5.02-1.48,.46-2.98,.88-4.49,1.24-.52-1.78-1.04-3.5-1.55-5.12Zm6.72,5.69c.63,1.7,1.21,3.41,1.74,5.11-1.65,.5-3.32,.94-5,1.34-.45-1.76-.91-3.48-1.38-5.16,1.56-.38,3.11-.8,4.64-1.29Zm-7.06-14.74c-.79,.3-1.59,.56-2.4,.78-.89-2.54-1.61-4.49-2.05-5.65,1.34,.79,2.86,2.46,4.45,4.87Zm-8.2-4.27c-.06,1.25-.15,3.34-.21,6.03-.84,.05-1.69,.06-2.53,.03,.77-2.77,1.7-4.87,2.74-6.06Zm-4.8,20.32c.1-1.89,.25-3.71,.45-5.42,1.37,0,2.74-.05,4.1-.16,.02,1.71,.06,3.5,.12,5.35-1.55,.13-3.1,.21-4.66,.23Zm6.66,1.51c2.31-.26,4.61-.62,6.89-1.11,.47,1.67,.94,3.39,1.38,5.15-2.64,.56-5.31,.98-7.99,1.28-.12-1.81-.21-3.59-.28-5.32Zm1.22,12.52s-.02,0-.03,0c-.15,.02-.28,.07-.4,.15,.05-.14,.08-.29,.06-.44-.17-1.66-.32-3.33-.44-4.98,2.8-.31,5.57-.75,8.32-1.33,.42,1.71,.82,3.45,1.19,5.2-2.88,.6-5.78,1.07-8.71,1.4Zm10.59-1.81c-.37-1.75-.77-3.49-1.19-5.21,1.71-.4,3.4-.86,5.09-1.36,.53,1.81,.98,3.57,1.35,5.23-1.74,.5-3.48,.94-5.24,1.34Z"/><path class="cls-10" d="M204.72,12.34c-.17-.11-.38-.17-.58-.16-.53,.03-.94,.48-.91,1.01l.68,12.18c.04,.51,.48,.9,.99,.88,.53-.01,.95-.46,.94-.99l-.56-9.98c4.97,5.11,6.35,16.21,6.51,17.72-.38,1.03-2.33,5.82-7.47,8.41-2.63,1.33-4.35,3.78-5.46,6.26-.55-2.01-1.6-3.86-3.04-5.37-1.66-1.72-3.43-3.33-5.28-4.84-3.45-2.9-6.7-5.65-9.39-10.77-4.11-7.82-5.39-10.61-5.41-10.64-.15-.34-.49-.56-.86-.56-.53,0-.97,.42-.98,.95-.01,.44-.15,8.68,1.23,15.04-.24-.35-.39-.59-.39-.59-.19-.32-.55-.5-.92-.46-.53,.05-.92,.52-.87,1.05,.45,3.74,1.38,7.41,2.76,10.92,2.99,7.51,7.66,12.07,13.49,13.2h.06s7.74,1.02,7.74,1.02c0,0,0,0,.01,0l.61,3.82c.03,.16,.09,.32,.2,.45,.33,.42,.94,.49,1.36,.15,.27-.22,.41-.56,.35-.9l-.62-3.93c2.39-.77,4.61-1.98,6.55-3.59,.91-.74,1.76-1.54,2.55-2.4,5.35-5.85,5.72-16.65,5.74-17.1,0-.07,0-.13-.02-.2-.14-1.31-1.71-15.83-9.01-20.58Zm-28.85,8.37c.83,1.64,1.99,3.89,3.56,6.87,2.87,5.46,6.44,8.45,9.86,11.35,1.8,1.46,3.51,3.03,5.12,4.69,2.61,2.76,3.09,6.01,3.01,8.37-.08,.33-.15,.65-.2,.94-1.5-3.93-5.03-11.28-10.8-12.56-3.12-.69-5.83-2.73-7.85-4.75l-.04-.07c-1.92-3.36-2.49-10.33-2.66-14.85Zm13.66,32.99c-9.03-1.78-12.66-12.52-13.98-18.46,2.25,2.63,5.9,6.02,10.46,7.03,5.27,1.18,8.57,8.99,9.73,12.25l-6.21-.82Zm17.04-4.79c-2.04,2.28-4.58,4.05-7.43,5.18,.09-.58,.16-1.16,.19-1.74,.73-3.08,2.35-7.44,5.85-9.21,2.38-1.21,4.45-2.97,6.03-5.12-.64,3.46-1.95,7.96-4.64,10.9Z"/><path class="cls-13" d="M5.33,23.89C-.81,29.66-1.52,43.13,2.57,49.55c-1.03,10.48,8.17,19.48,11.76,20.12,7.41-7.12,6.89-15.02,5.53-21.32-.35-1.38,7.8-8.16,2.9-20.44-.66-1.44,4.71-5.93,5.1-12.82,.21-7.57-2.52-7.69,2.52-14.36C16.74,.13,5.26,11.71,5.33,23.89Zm7.67,26.18c3.04,.19,4.34,3.07,4.21,6.61-.14,3.54-2.76,7.33-5.68,7.34-3.04-.19-5.41-5.57-5.28-9.11,.26-3.35,4.02-4.95,6.75-4.84Zm2.36-21.69c3.27,1.37,4.08,7.22,2.38,11.23-1.69,4-5.04,6.67-8.3,5.3s-5.71-6.45-4.01-10.45c1.7-4.01,6.36-7.51,9.93-6.08Zm-2.61-15.33c1.99-3.13,6.15-5.78,8.72-4.23,2.58,1.54,2.67,6.27,.8,9.58-1.68,3.19-4.58,5.31-7.15,3.76-2.58-1.54-3.93-5.73-2.37-9.11Z"/><path class="cls-13" d="M104.41,141.89v5.41c-31.13-.07-62.05-14.83-80.75-43.07-1.2-1.85-2.68-4.16-3.74-6.09-.31-.57-.88-1.49-1.16-2.08-.61-1.23-1.58-3.01-2.17-4.25-3.53-7.1-5.16-15.09-6.22-22.84-.1-1.01-.32-3.09-.42-4.1-.01-.15-.02-.32-.04-.5,.84,.36,1.72,.26,2.4,.06,0,.02,0,.05,.01,.07,.24,.95,.76,2.89,1.01,3.88,1.64,5.87,3.8,11.55,6.45,16.94,.64,1.36,1.25,2.72,1.82,4.11,.24,.58,.69,1.45,.98,2.02,.21,.4,1.09,2.15,1.28,2.5,.17,.28,.67,1.16,.84,1.46,.42,.71,1.26,2.26,1.71,2.91,.38,.58,1.43,2.23,1.82,2.84,16.85,25.76,46.29,40.56,76.17,40.72Z"/><path class="cls-10" d="M104.46,143.74s-5.22,.15-13.81-1.15-42.1-10.22-51.56-19.95l9.33,8.06,12.3,7.24,13.81,5.8,22.9,4.53h7.75l-.73-4.53Z"/></g><g><text class="cls-11" transform="translate(251.09 65.81)"><tspan class="cls-5" x="0" y="0">A</tspan><tspan class="cls-18" x="46.44" y="0">GRÍ</tspan><tspan class="cls-16" x="155.45" y="0">C</tspan><tspan class="cls-19" x="199.71" y="0">O</tspan><tspan class="cls-15" x="245.79" y="0">L</tspan><tspan class="cls-18" x="285.75" y="0">A</tspan></text><text class="cls-12" transform="translate(245.47 127.66)"><tspan class="cls-17" x="0" y="0">P</tspan><tspan class="cls-3" x="42.01" y="0">i</tspan><tspan class="cls-2" x="59.52" y="0">n</tspan><tspan class="cls-4" x="99.89" y="0">do</tspan><tspan class="cls-6" x="178.1" y="0">r</tspan><tspan class="cls-3" x="205.99" y="0">ama</tspan></text></g><path class="cls-8" d="M230.2,149.71c-.4,0-.72-.32-.72-.72V.72c0-.4,.32-.72,.72-.72s.72,.32,.72,.72V148.99c0,.4-.32,.72-.72,.72Z"/></g></g></svg>